<?xml version="1.0" standalone="no"?>
<!DOCTYPE svg PUBLIC "-//W3C//DTD SVG 20010904//EN"
 "http://www.w3.org/TR/2001/REC-SVG-20010904/DTD/svg10.dtd">
<svg version="1.0" xmlns="http://www.w3.org/2000/svg"
 width="1024.000000pt" height="1024.000000pt" viewBox="0 0 1024.000000 1024.000000"
 preserveAspectRatio="xMidYMid meet">
<metadata>
Created by potrace 1.14, written by Peter Selinger 2001-2017
</metadata>
<g transform="translate(0.000000,1024.000000) scale(0.100000,-0.100000)"
fill="#000000" stroke="none">
<path d="M4418 10219 c-104 -15 -221 -94 -275 -186 -55 -95 -55 -96 -57 -657
l-1 -520 -58 -34 c-62 -36 -108 -90 -128 -150 -8 -23 -13 -94 -13 -186 l-1
-148 28 -24 28 -24 550 0 c516 0 549 -1 550 -17 1 -21 1 -361 0 -383 -1 -13
-53 -15 -418 -13 -278 1 -427 -2 -446 -9 -63 -24 -64 -114 -2 -145 12 -6 181
-9 438 -9 231 1 421 -3 424 -8 8 -12 7 -972 -1 -984 -3 -5 -25 -12 -48 -15
-74 -10 -226 -65 -347 -125 -103 -51 -375 -223 -441 -279 -14 -12 -68 -57
-121 -101 -353 -295 -698 -721 -841 -1037 -42 -94 -93 -251 -103 -315 -4 -25
-10 -64 -14 -87 -13 -67 -11 -262 4 -343 15 -88 44 -191 56 -204 4 -5 1 -25
-7 -45 -159 -368 -235 -665 -230 -898 1 -57 1 -103 -1 -103 -9 0 -560 334
-568 345 -7 8 -10 137 -10 356 l1 344 -27 28 c-34 33 -69 35 -106 3 l-28 -24
0 -303 c0 -197 -4 -303 -10 -300 -6 2 -19 9 -30 16 -11 7 -70 42 -130 78
l-110 66 0 667 1 668 -24 28 c-35 41 -97 36 -124 -10 -13 -23 -15 -104 -16
-607 0 -319 -1 -589 -1 -599 -1 -14 -15 -2 -47 40 -59 76 -98 154 -126 251
-22 76 -22 90 -23 623 l0 545 547 1 c608 2 591 0 603 66 3 18 4 94 2 168 -3
118 -6 141 -27 180 -29 57 -88 114 -134 131 -20 7 -36 20 -37 29 0 8 -1 237
-1 508 -1 272 -5 515 -10 540 -27 151 -169 284 -324 308 -62 9 -1342 9 -1408
0 -110 -16 -244 -113 -290 -211 -41 -86 -43 -114 -44 -626 0 -271 -1 -503 -1
-514 -1 -14 -12 -25 -33 -33 -50 -18 -115 -82 -139 -137 -20 -44 -23 -69 -24
-195 -1 -80 0 -153 3 -162 2 -9 16 -25 30 -34 23 -15 78 -17 574 -17 l548 0 1
-536 c0 -295 2 -543 4 -551 1 -8 6 -35 10 -60 17 -116 91 -280 172 -381 33
-42 142 -145 181 -173 21 -14 158 -98 303 -185 l264 -159 5 -504 c5 -542 4
-529 57 -549 31 -11 77 6 93 36 10 19 13 125 13 469 0 476 -2 459 46 422 8 -6
39 -25 70 -43 l56 -32 1 -272 2 -273 26 -23 c33 -28 76 -30 107 -4 24 19 24
23 29 244 l5 226 70 -45 c39 -24 78 -47 88 -52 11 -5 38 -54 67 -125 83 -201
305 -617 461 -862 l37 -59 -31 -11 c-227 -81 -511 -249 -697 -411 -140 -123
-298 -309 -367 -434 -78 -141 -172 -385 -265 -685 -90 -291 -91 -302 -22 -331
33 -14 38 -13 67 3 28 17 35 32 82 189 51 170 136 422 160 479 7 17 32 73 54
126 75 173 156 291 297 434 159 160 330 281 546 387 110 54 220 100 225 94 2
-2 6 -32 9 -67 17 -209 98 -444 199 -578 105 -138 367 -302 525 -327 36 -6 45
-3 70 21 23 22 28 34 25 63 -4 41 -29 64 -89 82 -105 30 -240 108 -349 199
-27 24 -91 111 -115 156 -21 42 -76 216 -86 274 l-6 34 58 -59 c82 -83 176
-169 252 -234 36 -30 67 -57 70 -60 23 -26 82 -60 103 -60 28 0 75 36 78 60 5
48 -5 62 -108 151 -355 307 -442 410 -677 802 -211 353 -409 772 -455 966 -19
77 -21 186 -6 281 13 81 17 100 40 191 82 323 287 767 548 1188 80 129 86 160
43 198 -33 28 -65 29 -99 3 -21 -17 -146 -208 -170 -260 -4 -8 -17 -31 -28
-50 -25 -42 -107 -190 -134 -242 -12 -24 -23 -34 -29 -28 -11 11 -14 244 -3
315 13 89 18 108 53 213 79 238 241 493 488 767 80 89 219 226 286 283 19 17
49 42 65 57 69 61 297 226 385 279 308 185 537 240 730 176 80 -27 198 -86
293 -147 117 -75 192 -134 335 -262 368 -332 712 -772 822 -1051 24 -62 58
-188 66 -249 3 -25 8 -55 10 -66 10 -52 16 -239 7 -230 -5 6 -51 58 -101 117
-116 135 -290 308 -311 309 -9 0 -23 2 -32 4 -9 1 -29 -7 -45 -20 -22 -18 -28
-30 -27 -59 1 -33 13 -50 126 -164 69 -70 144 -149 167 -177 23 -27 52 -61 64
-75 93 -109 213 -292 281 -430 89 -179 116 -296 110 -475 -3 -107 -36 -313
-65 -410 -73 -246 -138 -422 -221 -602 -169 -367 -314 -600 -514 -828 -329
-374 -691 -700 -871 -782 -40 -18 -79 -27 -141 -31 l-85 -5 43 84 c52 104 78
179 85 245 7 65 -10 203 -41 324 -13 52 -22 97 -20 100 2 4 23 20 47 36 64 42
312 229 398 298 288 233 454 389 691 652 156 173 294 413 338 587 39 151 11
435 -63 644 -109 310 -338 564 -651 720 -142 71 -372 148 -501 167 -22 4 -49
8 -59 10 -107 20 -363 27 -500 13 -347 -34 -702 -172 -930 -361 -104 -86 -212
-208 -261 -294 -15 -26 -33 -54 -39 -62 -14 -18 -71 -148 -90 -204 -74 -223
-95 -527 -46 -680 50 -152 156 -332 296 -502 107 -129 310 -336 445 -455 47
-41 87 -77 90 -80 31 -36 500 -399 632 -488 33 -23 38 -32 62 -130 31 -128 38
-169 41 -241 2 -66 -9 -101 -78 -242 l-52 -107 -90 34 c-112 43 -124 46 -156
29 -30 -15 -39 -33 -39 -74 0 -47 43 -77 173 -120 38 -13 70 -28 72 -34 2 -6
6 -54 10 -108 3 -53 7 -105 10 -116 2 -10 6 -43 10 -73 4 -30 15 -112 26 -184
11 -72 22 -145 24 -163 8 -80 44 -115 103 -100 48 13 66 47 58 111 -11 89 -14
111 -20 142 -3 17 -8 50 -11 75 -3 25 -8 56 -10 70 -2 14 -6 50 -10 80 -3 30
-8 66 -11 80 -2 14 -6 55 -9 91 l-4 66 94 1 c147 0 246 37 400 147 176 126
378 311 612 558 44 48 84 87 86 87 10 0 -70 -224 -111 -312 -62 -134 -142
-249 -239 -343 -48 -47 -90 -85 -94 -85 -4 0 -14 -6 -21 -13 -78 -74 -328
-180 -443 -188 -87 -6 -131 -60 -99 -120 8 -17 20 -32 27 -34 33 -12 70 -12
141 1 327 57 664 308 829 619 87 165 161 372 208 578 12 53 27 97 33 97 22 0
484 -237 584 -300 240 -151 348 -252 434 -405 98 -173 204 -474 292 -829 38
-151 53 -177 105 -178 57 -2 94 53 78 117 -127 518 -240 828 -383 1052 -75
118 -261 273 -492 410 -121 72 -397 215 -509 263 -29 12 -53 25 -53 29 0 4 16
30 34 59 130 197 300 541 405 822 l32 85 121 70 c66 39 141 82 167 98 l48 27
1 -227 1 -228 26 -22 c35 -30 79 -30 110 2 l25 24 0 274 0 274 85 51 c47 27
86 47 86 43 1 -3 2 -206 3 -451 1 -332 5 -451 14 -467 31 -55 127 -40 144 22
4 17 8 221 8 455 -1 234 -1 452 0 486 l0 61 253 148 c138 82 279 167 312 190
170 120 293 300 347 507 20 79 21 108 24 603 2 286 3 536 4 556 l0 37 544 0
c300 0 553 3 563 6 37 12 43 41 44 194 1 144 -4 173 -37 237 -18 34 -91 95
-132 110 l-27 10 0 510 c1 539 -1 569 -47 659 -30 58 -115 138 -178 168 -31
15 -85 30 -120 34 -82 9 -1316 9 -1390 0 -126 -15 -242 -101 -302 -224 l-33
-67 -3 -540 -3 -541 -35 -13 c-48 -17 -99 -64 -132 -120 -26 -43 -27 -54 -30
-194 -2 -82 -1 -159 2 -172 15 -57 6 -57 603 -58 l548 -2 -1 -515 c0 -283 -3
-538 -7 -565 -15 -119 -80 -267 -157 -356 l-37 -43 0 609 0 608 -27 24 c-35
30 -77 30 -108 -2 l-25 -24 0 -671 c0 -369 -2 -672 -4 -674 -14 -10 -250 -147
-261 -151 -13 -5 -15 35 -15 289 0 322 -2 338 -58 352 -30 7 -76 -10 -91 -34
-8 -12 -11 -130 -10 -364 l1 -347 -105 -62 c-369 -218 -614 -361 -628 -366 -9
-4 -13 -2 -9 4 10 15 54 227 62 293 3 30 8 71 11 90 29 226 -33 471 -183 730
-56 96 -62 119 -48 191 16 78 0 369 -26 494 -13 62 -47 183 -58 210 -5 11 -19
45 -31 75 -63 155 -290 482 -492 708 -95 106 -379 382 -458 445 -47 38 -92 74
-100 80 -161 129 -384 246 -542 286 l-73 19 0 93 0 94 313 1 c269 2 316 4 337
18 48 31 45 105 -5 131 -24 12 -81 15 -335 15 -168 0 -306 3 -306 8 -1 4 -2
42 -3 85 l-2 77 55 1 c31 0 263 1 516 1 396 0 464 3 487 16 44 26 50 77 14
119 l-24 28 -524 0 -523 0 0 440 0 440 558 5 559 5 19 24 c21 26 21 19 21 161
1 143 -8 195 -45 252 -32 49 -103 108 -130 108 -9 0 -18 8 -20 18 -3 9 -5 240
-5 512 0 272 -2 506 -5 520 -3 14 -8 34 -11 46 -27 123 -160 249 -296 280 -43
9 -1366 12 -1432 3z m1432 -171 c55 -23 101 -68 126 -122 l23 -50 1 -508 0
-508 -875 0 -875 0 -1 23 c-3 166 1 983 6 999 31 107 99 166 205 177 30 3 348
5 705 5 546 -2 656 -4 685 -16z m286 -1363 c46 -19 64 -63 64 -158 l0 -75
-1075 0 -1075 1 -1 56 c-2 110 11 149 59 175 41 23 1975 24 2028 1z m-3920
-1546 c57 -30 94 -68 117 -119 20 -44 21 -62 22 -552 l0 -508 -35 -1 c-50 -1
-1682 -1 -1700 0 -13 1 -15 62 -15 509 1 496 2 508 23 552 11 25 27 52 34 60
19 23 69 56 103 68 20 7 256 11 721 11 680 0 691 0 730 -20z m7289 -3 c69 -32
118 -92 131 -160 3 -21 7 -258 8 -527 1 -482 1 -489 -19 -490 -23 -1 -1704 -1
-1722 0 -9 1 -11 128 -11 510 l0 508 25 49 c14 27 38 61 55 76 64 57 53 56
798 57 l685 1 50 -24z m-7002 -1359 c40 -26 50 -54 53 -145 l3 -82 -1077 2
-1077 3 0 73 c0 44 6 85 15 105 31 65 -26 62 1066 62 923 0 992 -2 1017 -18z
m7288 0 c15 -10 32 -30 38 -45 10 -23 15 -104 12 -164 -1 -17 -59 -18 -1077
-18 l-1076 0 4 89 c3 96 16 122 69 145 19 8 310 11 1015 11 929 -1 991 -2
1015 -18z m-5231 -2034 c33 -63 133 -162 193 -191 l48 -24 -58 -34 c-69 -40
-162 -137 -188 -193 -10 -23 -21 -41 -24 -41 -3 0 -15 19 -26 43 -26 56 -138
168 -198 199 l-48 24 48 24 c61 31 172 142 197 198 10 23 22 42 25 42 3 0 17
-21 31 -47z"/>
<path d="M4432 9916 c-12 -6 -25 -20 -29 -31 -4 -11 -8 -204 -8 -428 l-1 -408
22 -25 c13 -13 29 -25 36 -25 7 -1 310 -2 672 -3 714 -1 706 -2 723 52 10 32
10 784 0 824 -15 57 -3 56 -727 55 -447 0 -672 -4 -688 -11z"/>
<path d="M813 7022 c-13 -2 -32 -15 -43 -29 -19 -25 -20 -39 -20 -438 l0 -413
31 -26 30 -26 666 1 c435 0 673 4 688 11 43 19 45 39 45 463 l0 404 -24 28
-24 28 -664 0 c-364 0 -673 -1 -685 -3z"/>
<path d="M8092 7019 c-9 -4 -25 -16 -36 -27 -17 -20 -18 -46 -19 -429 0 -434
1 -445 48 -463 13 -5 317 -9 691 -9 l667 0 27 27 26 27 -2 405 c0 223 -2 413
-3 422 0 10 -13 26 -28 35 -25 17 -72 18 -691 18 -365 0 -671 -3 -680 -6z"/>
<path d="M3716 8038 c-103 -23 -180 -109 -192 -217 -20 -184 174 -326 343
-251 58 26 87 52 121 109 35 60 37 165 5 227 -53 101 -170 157 -277 132z"/>
<path d="M6560 7552 c-126 -61 -183 -207 -125 -325 31 -66 67 -101 129 -128
158 -69 333 41 341 215 5 95 -41 176 -128 226 -44 25 -63 30 -117 29 -39 0
-79 -7 -100 -17z"/>
<path d="M2192 4855 c-57 -25 -98 -63 -126 -119 -63 -125 -16 -273 109 -335
164 -82 355 38 355 224 0 140 -108 246 -248 245 -31 -1 -72 -7 -90 -15z"/>
<path d="M7852 4844 c-120 -60 -170 -202 -114 -326 68 -150 275 -191 391 -77
55 54 73 91 79 164 15 190 -185 325 -356 239z"/>
<path d="M2360 2150 c-184 -51 -247 -278 -114 -415 48 -50 91 -68 164 -71 178
-8 301 156 246 324 -20 58 -81 125 -135 148 -40 17 -123 24 -161 14z"/>
<path d="M7741 2142 c-58 -20 -133 -94 -149 -148 -36 -124 4 -232 112 -302 36
-24 51 -27 121 -27 70 0 85 3 120 26 87 58 127 126 126 215 -2 174 -166 292
-330 236z"/>
</g>
</svg>
